<?xml version="1.0" encoding="utf-8"?>
<!-- Generator: Adobe Illustrator 16.0.0, SVG Export Plug-In . SVG Version: 6.00 Build 0)  -->
<!DOCTYPE svg PUBLIC "-//W3C//DTD SVG 1.1//EN" "http://www.w3.org/Graphics/SVG/1.1/DTD/svg11.dtd">
<svg version="1.1" id="Layer_1" xmlns="http://www.w3.org/2000/svg" xmlns:xlink="http://www.w3.org/1999/xlink" x="0px" y="0px"
	 width="1080px" height="432px" viewBox="0 0 1080 432" enable-background="new 0 0 1080 432" xml:space="preserve">
<polygon fill="#FFFDFD" points="285.297,104.453 241.471,210.745 197.937,104.453 232.556,104.453 241.765,135.833 251.929,104.453 
	"/>
<rect x="291.853" y="104.453" fill="#FFFDFD" width="29.907" height="100.547"/>
<g>
	<defs>
		<rect id="SVGID_1_" x="-131" y="-138" width="1366" height="768"/>
	</defs>
	<clipPath id="SVGID_2_">
		<use xlink:href="#SVGID_1_"  overflow="visible"/>
	</clipPath>
	<path clip-path="url(#SVGID_2_)" fill="#FFFDFD" d="M409.857,155.868l31.305,0.81c-2.063,16.207-7.673,28.729-16.83,37.567
		c-9.16,8.84-21.105,13.258-35.837,13.258c-14.978,0-27.511-5.019-37.603-15.062c-10.092-10.042-15.136-22.501-15.136-37.383
		c0-14.979,5.141-27.573,15.431-37.788c10.287-10.211,22.969-15.32,38.045-15.32c14.831,0,27.205,5.008,37.125,15.025
		c6.875,6.925,11.735,16.575,14.585,28.949l-32.043,2.135c-3.585-10.998-10.385-16.499-20.403-16.499c-6.384,0-11.65,2.21-15.8,6.63
		c-4.15,4.42-6.224,10.044-6.224,16.868c0,6.582,2.038,12.02,6.114,16.315c4.076,4.298,9.231,6.446,15.47,6.446
		c6.333,0,11.379-1.891,15.137-5.671C406.947,168.365,409.168,162.94,409.857,155.868"/>
	<polygon clip-path="url(#SVGID_2_)" fill="#FFFDFD" points="499.059,133.328 499.059,205 469.154,205 469.154,133.328 
		446.245,133.328 446.245,104.453 521.892,104.453 521.892,133.328 	"/>
	<path clip-path="url(#SVGID_2_)" fill="#FFFDFD" d="M580.602,101.949c14.24,0,26.457,5.182,36.645,15.542
		c10.189,10.363,15.285,22.76,15.285,37.198c0,14.684-5.131,27.158-15.395,37.42c-10.264,10.264-22.736,15.393-37.422,15.393
		c-14.582,0-27.031-5.155-37.344-15.467c-10.314-10.312-15.469-22.762-15.469-37.346c0-14.731,5.193-27.206,15.581-37.419
		C552.867,107.057,565.576,101.949,580.602,101.949 M579.715,131.56c-6.137,0-11.367,2.259-15.688,6.777
		c-4.322,4.518-6.484,9.97-6.484,16.352c0,6.385,2.176,11.837,6.521,16.353c4.348,4.518,9.562,6.777,15.65,6.777
		c6.189,0,11.432-2.249,15.73-6.741c4.295-4.492,6.443-9.954,6.443-16.389c0-6.433-2.148-11.896-6.443-16.389
		C591.146,133.807,585.904,131.56,579.715,131.56"/>
	<path clip-path="url(#SVGID_2_)" fill="#FFFDFD" d="M676.508,131.486V205h-29.906V104.453h38.377
		c11.688,0,20.746,2.899,27.18,8.691c7.17,6.483,10.756,14.708,10.756,24.678c0,10.163-4.445,18.735-13.332,25.707L726.816,205
		h-31.381l-14.51-32.41v-25.856h2.357c6.285,0,9.428-2.699,9.428-8.103c0-4.763-3.633-7.145-10.9-7.145H676.508z"/>
	<path clip-path="url(#SVGID_2_)" fill="#FFFDFD" d="M772.486,104.453h29.906v59.739c0,4.664,0.748,7.771,2.246,9.318
		s4.457,2.319,8.875,2.319h1.545V205h-7.953c-10.9,0-19.396-3.181-25.486-9.541c-6.09-6.357-9.133-15.184-9.133-26.48V104.453z"/>
	<path clip-path="url(#SVGID_2_)" fill="#FFFDFD" d="M895.791,104.453v65.188c0,11.493-3.424,20.677-10.273,27.55
		c-6.854,6.877-15.975,10.312-27.365,10.312c-11.346,0-20.025-3.337-26.041-10.016c-6.014-6.679-9.023-16.28-9.023-28.802v-64.231
		h29.908v64.159c0,6.139,2.184,9.208,6.557,9.208c4.223,0,6.334-3.069,6.334-9.208v-64.159H895.791z"/>
	<path clip-path="url(#SVGID_2_)" fill="#FFFDFD" d="M911.924,205v-65.263c0-11.441,3.424-20.6,10.273-27.476
		c6.852-6.875,15.973-10.312,27.367-10.312c11.344,0,20.021,3.34,26.037,10.019c6.016,6.677,9.023,16.278,9.023,28.801V205h-29.904
		v-64.231c0-6.138-2.188-9.208-6.559-9.208c-4.221,0-6.332,3.07-6.332,9.208V205H911.924z"/>
	<path clip-path="url(#SVGID_2_)" fill="#FFFDFD" d="M1039.281,154.542v26.518h-8.617V205h-29.906v-63.937
		c0-12.376,3.375-21.987,10.127-28.838c6.752-6.85,16.244-10.276,28.471-10.276c11.785,0,20.5,3.106,26.15,9.317
		c5.645,6.213,8.469,15.801,8.469,28.766V205h-29.904V142.02c0-3.928-0.469-6.653-1.4-8.176c-0.934-1.521-2.604-2.285-5.01-2.285
		c-4.666,0-6.996,3.488-6.996,10.46v12.521H1039.281z"/>
	<polygon clip-path="url(#SVGID_2_)" fill="#FFFDFD" points="263.161,235.566 263.115,240.471 246.877,240.471 246.877,249.814 
		261.587,249.814 261.587,254.672 246.877,254.672 246.877,267.949 241.42,267.949 241.42,235.566 	"/>
	<path clip-path="url(#SVGID_2_)" fill="#FFFDFD" d="M295.395,263.277c5.273,0,8.557-3.236,8.557-8.744v-18.967h5.459v18.967
		c0,8.467-5.32,13.646-14.062,13.646c-8.744,0-14.11-5.18-14.11-13.646v-18.967h5.458v18.967
		C286.697,259.992,290.074,263.277,295.395,263.277"/>
	<polygon clip-path="url(#SVGID_2_)" fill="#FFFDFD" points="336.554,235.566 336.554,263 350.57,263 350.57,267.949 
		331.097,267.949 331.097,235.566 	"/>
	<polygon clip-path="url(#SVGID_2_)" fill="#FFFDFD" points="375.126,235.566 375.126,263 389.143,263 389.143,267.949 
		369.669,267.949 369.669,235.566 	"/>
	<path clip-path="url(#SVGID_2_)" fill="#FFFDFD" d="M446.211,240.471c-3.192,0-5.273,1.202-5.273,3.377
		c0,7.078,17.485,3.284,17.44,14.941c0,5.783-5.089,9.346-12.213,9.346c-5.089,0-9.899-2.082-13.23-5.135l2.359-4.719
		c3.33,3.055,7.494,4.719,10.964,4.719c3.792,0,6.06-1.434,6.06-3.932c0-7.219-17.486-3.193-17.486-14.711
		c0-5.552,4.765-9.021,11.796-9.021c4.21,0,8.327,1.342,11.333,3.331l-2.267,4.812C452.18,241.349,448.663,240.471,446.211,240.471"
		/>
	<polygon clip-path="url(#SVGID_2_)" fill="#FFFDFD" points="500.741,235.566 500.741,240.471 490.472,240.471 490.472,267.949 
		485.013,267.949 485.013,240.471 474.79,240.471 474.79,235.566 	"/>
	<path clip-path="url(#SVGID_2_)" fill="#FFFDFD" d="M537,260.641h-16.329l-3.099,7.309h-5.69l14.295-32.383h5.596l14.157,32.383
		h-5.828L537,260.641z M534.919,255.783l-6.105-14.387l-6.106,14.387H534.919z"/>
	<path clip-path="url(#SVGID_2_)" fill="#FFFDFD" d="M577.699,240.285c-6.477,0-11.566,4.996-11.566,11.379
		c0,6.387,5.09,11.43,11.566,11.43c3.238,0,6.568-1.482,9.021-3.838l3.238,3.605c-3.285,3.236-7.957,5.318-12.537,5.318
		c-9.484,0-16.838-7.168-16.838-16.467c0-9.206,7.449-16.285,17.023-16.285c4.58,0,9.158,1.896,12.305,4.997l-3.191,3.978
		C584.361,241.858,580.984,240.285,577.699,240.285"/>
	<polygon clip-path="url(#SVGID_2_)" fill="#FFFDFD" points="630.98,267.949 620.34,253.654 614.836,259.715 614.836,267.949 
		609.377,267.949 609.377,235.566 614.836,235.566 614.836,252.312 630.285,235.566 636.715,235.566 624.18,249.399 
		637.549,267.949 	"/>
	<path clip-path="url(#SVGID_2_)" fill="#FFFDFD" d="M714.23,251.758c0,9.346-7.08,16.191-16.885,16.191h-13.139v-32.383h13.277
		C707.197,235.566,714.23,242.367,714.23,251.758 M708.725,251.806c0-6.616-4.951-11.335-11.334-11.335h-7.725v22.574h7.957
		C703.916,263.045,708.725,258.375,708.725,251.806"/>
	<polygon clip-path="url(#SVGID_2_)" fill="#FFFDFD" points="757.055,235.566 757.055,240.471 739.385,240.471 739.385,249.26 
		755.203,249.26 755.203,254.117 739.385,254.117 739.385,263.045 757.609,263.045 757.609,267.949 733.926,267.949 
		733.926,235.566 	"/>
	<polygon clip-path="url(#SVGID_2_)" fill="#FFFDFD" points="779.896,235.566 789.889,261.891 799.973,235.566 805.664,235.566 
		792.572,267.949 786.928,267.949 774.021,235.566 	"/>
	<polygon clip-path="url(#SVGID_2_)" fill="#FFFDFD" points="847.055,235.566 847.055,240.471 829.385,240.471 829.385,249.26 
		845.205,249.26 845.205,254.117 829.385,254.117 829.385,263.045 847.611,263.045 847.611,267.949 823.926,267.949 
		823.926,235.566 	"/>
	<polygon clip-path="url(#SVGID_2_)" fill="#FFFDFD" points="873.598,235.566 873.598,263 887.613,263 887.613,267.949 
		868.139,267.949 868.139,235.566 	"/>
	<path clip-path="url(#SVGID_2_)" fill="#FFFDFD" d="M938.352,251.758c0,9.254-7.494,16.422-17.162,16.422
		s-17.162-7.168-17.162-16.422c0-9.299,7.494-16.33,17.162-16.33S938.352,242.507,938.352,251.758 M909.578,251.758
		c0,6.432,5.318,11.52,11.656,11.52s11.52-5.088,11.52-11.52c0-6.431-5.182-11.426-11.52-11.426
		C914.852,240.332,909.578,245.327,909.578,251.758"/>
	<path clip-path="url(#SVGID_2_)" fill="#FFFDFD" d="M983.768,246.623c0,7.309-4.672,11.566-12.812,11.566h-7.447v9.76h-5.461
		v-32.383h12.908C979.096,235.566,983.768,239.591,983.768,246.623 M978.541,246.762c0-4.255-2.824-6.291-7.82-6.291h-7.213v12.814
		h7.213C975.717,253.285,978.541,251.157,978.541,246.762"/>
	<polygon clip-path="url(#SVGID_2_)" fill="#FFFDFD" points="1026.178,235.566 1026.178,240.471 1008.508,240.471 1008.508,249.26 
		1024.328,249.26 1024.328,254.117 1008.508,254.117 1008.508,263.045 1026.732,263.045 1026.732,267.949 1003.049,267.949 
		1003.049,235.566 	"/>
	<path clip-path="url(#SVGID_2_)" fill="#FFFDFD" d="M1067.799,267.949l-5.92-9.807c-0.463,0.047-0.971,0.047-1.479,0.047h-7.68
		v9.76h-5.461v-32.383h13.141c8.277,0,13.043,4.024,13.043,11.057c0,5.183-2.406,8.836-6.707,10.5l7.264,10.826H1067.799z
		 M1060.4,253.285c4.994,0,7.861-2.129,7.861-6.523c0-4.255-2.867-6.291-7.861-6.291h-7.68v12.814H1060.4z"/>
	<path clip-path="url(#SVGID_2_)" fill="#FFFDFD" d="M422.345,324.775c-1.518-1.516-3.463-2.273-5.835-2.273H173.085
		c-2.369,0-4.315,0.758-5.835,2.273c-1.522,1.523-2.28,3.469-2.28,5.836v16.23c0,2.359,0.758,4.307,2.28,5.82
		c1.521,1.523,3.466,2.281,5.835,2.281H416.51c2.372,0,4.317-0.758,5.835-2.281c1.521-1.514,2.28-3.461,2.28-5.82v-16.23
		C424.625,328.244,423.866,326.299,422.345,324.775"/>
	<path clip-path="url(#SVGID_2_)" fill="#FFFDFD" d="M32.847,84.893c-1.686-1.684-3.631-2.537-5.821-2.537
		c-2.201,0-4.146,0.853-5.833,2.537L8.516,97.568c-1.684,1.689-2.536,3.633-2.536,5.834c0,2.207,0.852,4.153,2.536,5.837
		l99.651,99.644L8.516,308.551c-1.684,1.684-2.536,3.629-2.536,5.834c0,2.188,0.852,4.131,2.536,5.82l12.677,12.688
		c1.688,1.688,3.632,2.525,5.833,2.525c2.19,0,4.136-0.838,5.821-2.525l118.171-118.172c1.688-1.685,2.541-3.629,2.541-5.837
		c0-2.187-0.853-4.132-2.541-5.835L32.847,84.893z"/>
</g>
</svg>
